<svg width="41" height="46" viewBox="0 0 41 46" fill="none" xmlns="http://www.w3.org/2000/svg">
<path d="M24.8891 25.7456C17.5083 37.2951 33.1705 45.8251 33.3771 46C28.9991 33.4873 35.6822 27.2676 39.4528 18.364C45.171 4.86093 33.1985 -2.25824e-07 33.1985 -2.25824e-07C38.5594 9.54201 31.2037 15.8646 24.8891 25.7456ZM11.1761 27.2907C5.70176 36.1053 17.3181 42.6156 17.4714 42.7491C14.2244 33.1992 19.1811 28.4522 21.9775 21.6571C26.2187 11.3513 17.3389 7.64134 17.3389 7.64134C21.3151 14.9239 15.8596 19.7494 11.1761 27.2907ZM0.934971 28.9473C-2.55798 34.5714 4.85374 38.7252 4.95163 38.8105C2.8799 32.7173 6.04257 29.6886 7.82675 25.3528C10.5328 18.7774 4.86709 16.4102 4.86709 16.4102C7.40408 21.0567 3.92307 24.1357 0.934971 28.9473Z" fill="url(#paint0_linear_6055_933)"/>
<defs>
<linearGradient id="paint0_linear_6055_933" x1="20.5" y1="2.02913" x2="20.5" y2="37.217" gradientUnits="userSpaceOnUse">
<stop stop-color="#E10558"/>
<stop offset="1" stop-color="#FF8408"/>
</linearGradient>
</defs>
</svg>
