<svg width="29" height="32" viewBox="0 0 29 32" fill="none" xmlns="http://www.w3.org/2000/svg">
<path d="M0.415756 12.2729C0.233746 12.1406 0.122971 11.975 0.0842834 11.7761C0.044716 11.5772 0.102732 11.3724 0.260122 11.1619C1.87096 8.91352 3.89066 7.16777 6.32097 5.92458C8.75041 4.68138 11.3416 4.05974 14.0947 4.05974C16.8485 4.05974 19.4468 4.66176 21.8886 5.86587C24.3312 7.0699 26.3702 8.80879 28.0074 11.0825C28.1894 11.3206 28.2484 11.5323 28.1833 11.7174C28.1191 11.9026 28.0083 12.0612 27.8518 12.1935C27.6953 12.3258 27.5142 12.3856 27.3058 12.3729C27.0983 12.3601 26.9162 12.2475 26.7606 12.0348C25.3309 9.97163 23.4932 8.39143 21.2467 7.29425C19.0001 6.19698 16.6155 5.64786 14.0947 5.64681C11.5746 5.64681 9.21027 6.19593 7.00241 7.29425C4.79367 8.39248 2.96214 9.97268 1.50693 12.0348C1.3513 12.2729 1.1693 12.4051 0.961788 12.4316C0.7534 12.458 0.571388 12.4051 0.415756 12.2729ZM18.4981 31.8334C15.796 31.146 13.5882 29.7766 11.8736 27.7267C10.159 25.676 9.30173 23.1694 9.30173 20.2086C9.30173 18.8857 9.76863 17.775 10.7042 16.8755C11.6397 15.9761 12.7696 15.5264 14.0947 15.5264C15.4197 15.5264 16.5496 15.9761 17.4851 16.8755C18.4207 17.775 18.8885 18.8857 18.8885 20.2086C18.8885 21.0808 19.2129 21.8157 19.8627 22.4116C20.5116 23.0065 21.2783 23.304 22.162 23.3031C23.0448 23.3031 23.7983 23.0057 24.4217 22.4098C25.0451 21.814 25.3573 21.0799 25.3573 20.2086C25.3573 17.1395 24.2529 14.5609 22.0451 12.4713C19.8363 10.3816 17.1994 9.33678 14.1333 9.33678C11.0682 9.33678 8.43124 10.3816 6.2225 12.4713C4.01463 14.5609 2.91027 17.1263 2.91027 20.169C2.91027 20.8036 2.96919 21.5966 3.08613 22.5489C3.20395 23.5012 3.48268 24.6128 3.9232 25.8819C4.00145 26.1205 3.9953 26.3317 3.90474 26.5165C3.81417 26.7022 3.66468 26.8343 3.45541 26.9135C3.2479 26.9927 3.04656 26.9865 2.85048 26.8932C2.65528 26.7999 2.519 26.6485 2.44251 26.4373C2.05299 25.4058 1.77335 24.3804 1.60541 23.3621C1.43659 22.3429 1.35218 21.292 1.3513 20.2086C1.3513 16.6907 2.60516 13.7409 5.11286 11.3603C7.62055 8.97971 10.6145 7.78941 14.0947 7.78941C17.6021 7.78941 20.6162 8.97971 23.1362 11.3603C25.6562 13.7409 26.9163 16.6907 26.9163 20.2086C26.9163 21.5305 26.4555 22.6351 25.5332 23.5205C24.6117 24.406 23.4879 24.8495 22.162 24.8504C20.8369 24.8504 19.7 24.4068 18.7513 23.5205C17.8025 22.6342 17.3286 21.5297 17.3295 20.2086C17.3295 19.3355 17.0112 18.6015 16.3755 18.0056C15.7389 17.4097 14.9792 17.1123 14.0947 17.1131C13.211 17.1131 12.4513 17.4115 11.8138 18.0074C11.1772 18.6023 10.8589 19.3364 10.8598 20.2086C10.8598 22.7742 11.6072 24.9164 13.102 26.6362C14.5958 28.3551 16.525 29.5592 18.8885 30.2465C19.1223 30.3258 19.278 30.4578 19.3554 30.6435C19.4336 30.8283 19.4468 31.0272 19.3949 31.2385C19.3431 31.4233 19.2393 31.5826 19.0828 31.7146C18.9272 31.8466 18.7319 31.8862 18.4981 31.8334ZM5.48216 3.98035C5.27465 4.11264 5.06625 4.146 4.85874 4.08034C4.65036 4.01477 4.49471 3.87562 4.39096 3.66298C4.2872 3.45139 4.26083 3.25988 4.31271 3.08843C4.36459 2.91706 4.49472 2.76471 4.70311 2.63137C6.15743 1.83784 7.6777 1.2294 9.26215 0.806228C10.8475 0.38297 12.4583 0.171387 14.0947 0.171387C15.7574 0.171387 17.3814 0.376635 18.9658 0.787131C20.5512 1.19771 22.0837 1.786 23.5644 2.55198C23.7983 2.68427 23.9355 2.84295 23.9751 3.02813C24.0138 3.21331 23.9944 3.39841 23.9153 3.58359C23.837 3.76877 23.7078 3.91426 23.5258 4.02005C23.3438 4.12584 23.1231 4.11264 22.8628 3.98035C21.4859 3.26621 20.0632 2.7171 18.5948 2.333C17.1264 1.94891 15.6264 1.75739 14.0947 1.75845C12.5876 1.75845 11.1069 1.93729 9.65167 2.29489C8.19734 2.65249 6.80723 3.21437 5.48216 3.98035ZM10.0808 31.2781C8.54818 29.6384 7.37171 27.9652 6.55311 26.2586C5.7345 24.5512 5.32565 22.5348 5.32653 20.2086C5.32653 17.8014 6.18381 15.7708 7.8984 14.1171C9.61299 12.4633 11.6784 11.637 14.0947 11.6381C16.5109 11.6381 18.5895 12.4649 20.3305 14.1187C22.0706 15.7724 22.941 17.8023 22.941 20.2086C22.941 20.4462 22.8698 20.6381 22.7256 20.7842C22.5823 20.9303 22.3941 21.0025 22.162 21.0016C21.9536 21.0016 21.7716 20.9285 21.616 20.7824C21.4604 20.6372 21.3821 20.4453 21.3821 20.2086C21.3821 18.2248 20.6611 16.5639 19.2182 15.228C17.7762 13.8917 16.0686 13.2241 14.0947 13.2251C12.1198 13.2251 10.4246 13.8933 9.00804 15.2297C7.59153 16.5657 6.88371 18.2256 6.88547 20.2086C6.88547 22.3508 7.24861 24.1692 7.97665 25.6646C8.70381 27.1599 9.76861 28.6605 11.1719 30.1673C11.3276 30.3258 11.4058 30.5115 11.4058 30.7227C11.4058 30.9339 11.3276 31.1196 11.1719 31.2781C11.0163 31.4365 10.8343 31.5166 10.6259 31.5166C10.4184 31.5166 10.2364 31.4365 10.0808 31.2781ZM21.8499 28.5804C19.5374 28.5804 17.53 27.7866 15.8286 26.1997C14.1263 24.6128 13.2752 22.6158 13.276 20.2086C13.276 19.9965 13.3481 19.8116 13.4915 19.6532C13.6348 19.4939 13.823 19.4147 14.056 19.4147C14.2898 19.4147 14.478 19.4939 14.6213 19.6532C14.7647 19.8116 14.8359 19.9965 14.835 20.2086C14.835 22.1924 15.5367 23.8189 16.94 25.0889C18.3424 26.3581 19.9797 26.9927 21.8499 26.9927C22.0055 26.9927 22.2271 26.9795 22.5128 26.9531C22.7986 26.9267 23.0967 26.8871 23.4088 26.8343C23.6427 26.7814 23.8441 26.8149 24.0138 26.9346C24.1826 27.0543 24.2934 27.2321 24.3444 27.4688C24.3963 27.6809 24.3567 27.8658 24.2274 28.0251C24.0973 28.1835 23.9285 28.2891 23.721 28.3419C23.2532 28.474 22.8443 28.547 22.4935 28.5611C22.1435 28.5752 21.929 28.5813 21.8499 28.5804Z" fill="black"/>
</svg>
