<svg width="160" height="178" viewBox="0 0 160 178" fill="none" xmlns="http://www.w3.org/2000/svg">
<path d="M97.1282 99.6242C68.3252 144.316 129.446 177.323 130.252 178C113.167 129.581 139.248 105.514 153.962 71.0608C176.277 18.8097 129.555 -5.20364e-06 129.555 -5.20364e-06C150.476 36.9234 121.771 61.3892 97.1282 99.6242ZM43.614 105.603C22.2508 139.712 67.5826 164.904 68.1811 165.42C55.5097 128.466 74.8531 110.098 85.7659 83.8034C102.317 43.9248 67.6642 29.5687 67.6642 29.5687C83.1807 57.7492 61.8911 76.4216 43.614 105.603ZM3.64867 112.013C-9.98235 133.776 18.9414 149.85 19.3234 150.18C11.2386 126.602 23.5807 114.882 30.5434 98.1044C41.1036 72.6603 18.9935 63.5002 18.9935 63.5002C28.894 81.4804 15.3095 93.3948 3.64867 112.013Z" fill="url(#paint0_linear_6040_2)"/>
<defs>
<linearGradient id="paint0_linear_6040_2" x1="79.9999" y1="7.85184" x2="79.9999" y2="144.013" gradientUnits="userSpaceOnUse">
<stop stop-color="#E10558"/>
<stop offset="1" stop-color="#FF8408"/>
</linearGradient>
</defs>
</svg>
