<svg width="348" height="388" viewBox="0 0 348 388" fill="none" xmlns="http://www.w3.org/2000/svg">
    <path
        d="M211.201 216.836C148.57 314.109 281.474 385.95 283.227 387.424C246.077 282.038 302.787 229.655 334.783 154.667C383.306 40.9399 281.711 -0.000183105 281.711 -0.000183105C327.202 80.3651 264.785 133.616 211.201 216.836ZM94.8365 229.849C48.3832 304.088 146.955 358.92 148.257 360.044C120.703 279.612 162.765 239.632 186.494 182.401C222.483 95.6039 147.133 64.3572 147.133 64.3572C180.873 125.693 134.579 166.335 94.8365 229.849ZM7.93385 243.801C-21.7061 291.169 41.1872 326.153 42.0179 326.872C24.4379 275.553 51.2752 250.045 66.4152 213.528C89.3779 158.148 41.3005 138.211 41.3005 138.211C62.8285 177.345 33.2899 203.277 7.93385 243.801Z"
        fill="url(#paint0_linear_271_21)" />
    <defs>
        <linearGradient id="paint0_linear_271_21" x1="173.956" y1="17.0897" x2="173.956" y2="313.451"
            gradientUnits="userSpaceOnUse">
            <stop stop-color="#E10558" />
            <stop offset="1" stop-color="#FF8408" />
        </linearGradient>
    </defs>
</svg>
