<svg width="651" height="238" viewBox="0 0 651 238" fill="none" xmlns="http://www.w3.org/2000/svg">
<mask id="mask0_6040_4" style="mask-type:luminance" maskUnits="userSpaceOnUse" x="0" y="0" width="651" height="238">
<path d="M0 0.875265H651V237.575H0V0.875265Z" fill="white"/>
</mask>
<g mask="url(#mask0_6040_4)">
<path d="M252.593 165.002C259.312 165.002 265.299 159.504 265.299 151.686C265.299 143.867 259.312 138.247 252.593 138.247C245.751 138.247 239.521 143.501 239.521 151.563V151.93C239.521 159.748 245.507 165.002 252.593 165.002ZM243.186 95.7322V123.709C247.34 121.265 252.104 119.922 256.991 119.922C272.017 119.922 286.067 131.895 286.067 151.807C286.067 171.355 272.628 183.693 256.991 183.693C250.394 183.693 244.286 181.372 239.521 177.585V182.227H219.974V95.7322H243.186Z" fill="white"/>
</g>
<mask id="mask1_6040_4" style="mask-type:luminance" maskUnits="userSpaceOnUse" x="0" y="0" width="651" height="238">
<path d="M0 0.875265H651V237.575H0V0.875265Z" fill="white"/>
</mask>
<g mask="url(#mask1_6040_4)">
<path d="M339.698 121.266L337.499 140.691C335.91 139.591 333.101 138.858 329.802 138.858C322.472 138.858 316.608 143.134 316.608 151.93V182.227H293.396V121.143H315.264V126.763C319.784 121.754 326.137 119.922 333.344 119.922C336.521 119.922 338.598 120.655 339.698 121.266Z" fill="white"/>
</g>
<mask id="mask2_6040_4" style="mask-type:luminance" maskUnits="userSpaceOnUse" x="0" y="0" width="651" height="238">
<path d="M0 0.875235H651V237.575H0V0.875235Z" fill="white"/>
</mask>
<g mask="url(#mask2_6040_4)">
<path d="M386.732 146.554C385.388 139.591 381.113 135.804 375.37 135.804C369.384 135.804 365.108 138.98 363.764 146.554H386.732ZM342.874 151.686C342.874 133.971 354.968 119.8 375.492 119.8C395.161 119.8 406.767 131.65 406.767 150.464C406.767 152.785 406.523 155.839 406.157 157.428H363.764C365.353 164.513 370.239 167.445 375.981 167.445C381.357 167.445 385.755 165.124 386.855 161.215L405.546 166.834C402.37 177.951 390.641 183.816 376.714 183.816C354.847 183.816 342.874 171.355 342.874 151.686Z" fill="white"/>
</g>
<mask id="mask3_6040_4" style="mask-type:luminance" maskUnits="userSpaceOnUse" x="0" y="0" width="651" height="238">
<path d="M0 0.875235H651V237.575H0V0.875235Z" fill="white"/>
</mask>
<g mask="url(#mask3_6040_4)">
<path d="M485.564 166.101L494.727 121.144H519.038L501.079 182.227H472.858L463.085 145.7L453.556 182.227H425.335L407.499 121.144H431.688L440.973 165.979L451.845 121.144H474.691L485.564 166.101Z" fill="white"/>
</g>
<mask id="mask4_6040_4" style="mask-type:luminance" maskUnits="userSpaceOnUse" x="0" y="0" width="651" height="238">
<path d="M0 0.875235H651V237.575H0V0.875235Z" fill="white"/>
</mask>
<g mask="url(#mask4_6040_4)">
<path d="M525.023 121.143H548.235V182.227H525.023V121.143ZM523.801 101.841C523.801 95.0002 529.421 89.1358 536.507 89.1358C543.348 89.1358 549.212 95.0002 549.212 101.841C549.212 108.805 543.348 114.546 536.507 114.546C529.421 114.546 523.801 108.805 523.801 101.841Z" fill="white"/>
</g>
<mask id="mask5_6040_4" style="mask-type:luminance" maskUnits="userSpaceOnUse" x="0" y="0" width="651" height="238">
<path d="M0 0.875235H651V237.575H0V0.875235Z" fill="white"/>
</mask>
<g mask="url(#mask5_6040_4)">
<path d="M596.245 163.292C599.544 163.292 602.11 162.192 603.697 161.459L605.896 178.929C601.865 181.739 595.267 183.448 589.037 183.448C574.01 183.448 565.337 174.409 565.337 159.504V139.102H555.197V122.976H565.337V102.208H588.548V122.976H605.896V139.102H588.548V154.984C588.548 160.726 591.114 163.292 596.245 163.292Z" fill="white"/>
</g>
<path d="M140.57 131.158C112.255 175.134 172.339 207.612 173.132 208.278C156.336 160.635 181.974 136.954 196.439 103.053C218.376 51.6388 172.446 33.1305 172.446 33.1305C193.012 69.4623 164.794 93.5361 140.57 131.158ZM87.9634 137.042C66.9626 170.604 111.525 195.392 112.114 195.9C99.6573 159.538 118.672 141.464 129.4 115.591C145.67 76.3515 111.606 62.2254 111.606 62.2254C126.859 89.9544 105.93 108.328 87.9634 137.042ZM48.6761 143.349C35.2764 164.763 63.7094 180.579 64.0849 180.904C56.1373 157.704 68.27 146.172 75.1146 129.663C85.4956 104.627 63.7606 95.6133 63.7606 95.6133C73.4931 113.305 60.1391 125.029 48.6761 143.349Z" fill="url(#paint0_linear_6040_4)"/>
<defs>
<linearGradient id="paint0_linear_6040_4" x1="123.732" y1="40.8565" x2="123.732" y2="174.836" gradientUnits="userSpaceOnUse">
<stop stop-color="#E10558"/>
<stop offset="1" stop-color="#FF8408"/>
</linearGradient>
</defs>
</svg>
